<?xml version="1.0" encoding="UTF-8"?>
<svg width="1920px" height="800px" viewBox="0 0 1920 800" version="1.1" xmlns="http://www.w3.org/2000/svg" xmlns:xlink="http://www.w3.org/1999/xlink">
    <!-- Generator: Sketch 62 (91390) - https://sketch.com -->
    <title>Journey</title>
    <desc>Created with Sketch.</desc>
    <defs>
        <linearGradient x1="50%" y1="2.77555756e-15%" x2="50%" y2="68.5728403%" id="linearGradient-1">
            <stop stop-color="#000000" offset="0%"></stop>
            <stop stop-color="#25282C" offset="100%"></stop>
        </linearGradient>
        <linearGradient x1="50%" y1="100%" x2="50%" y2="-2.48949813e-15%" id="linearGradient-2">
            <stop stop-color="#FFFFFF" stop-opacity="0" offset="0%"></stop>
            <stop stop-color="#FFFFFF" offset="100%"></stop>
        </linearGradient>
        <linearGradient x1="100%" y1="50%" x2="0%" y2="50%" id="linearGradient-3">
            <stop stop-color="#F58301" offset="0%"></stop>
            <stop stop-color="#F5CC03" offset="100%"></stop>
        </linearGradient>
        <linearGradient x1="-1.11022302e-14%" y1="50%" x2="67.7511059%" y2="50%" id="linearGradient-4">
            <stop stop-color="#621FFF" offset="0%"></stop>
            <stop stop-color="#AD20FF" stop-opacity="0" offset="100%"></stop>
        </linearGradient>
        <linearGradient x1="73.5548779%" y1="27.5591185%" x2="5.42237885%" y2="92.2893369%" id="linearGradient-5">
            <stop stop-color="#FF4746" stop-opacity="0" offset="0%"></stop>
            <stop stop-color="#F5005E" offset="99.9287373%"></stop>
        </linearGradient>
        <linearGradient x1="-7.10542736e-13%" y1="41.0421516%" x2="96.0779287%" y2="59.7968512%" id="linearGradient-6">
            <stop stop-color="#208BFF" offset="0%"></stop>
            <stop stop-color="#4801F5" stop-opacity="0" offset="100%"></stop>
        </linearGradient>
        <linearGradient x1="23.7439863%" y1="49.6753717%" x2="100%" y2="50%" id="linearGradient-7">
            <stop stop-color="#20F0FF" stop-opacity="0" offset="0%"></stop>
            <stop stop-color="#00F576" offset="100%"></stop>
        </linearGradient>
        <linearGradient x1="50%" y1="100%" x2="50%" y2="3.061617e-15%" id="linearGradient-8">
            <stop stop-color="#FFFFFF" stop-opacity="0" offset="0%"></stop>
            <stop stop-color="#FFFFFF" offset="100%"></stop>
        </linearGradient>
        <linearGradient x1="50%" y1="100%" x2="50%" y2="3.061617e-15%" id="linearGradient-9">
            <stop stop-color="#000000" offset="0%"></stop>
            <stop stop-color="#25282C" offset="100%"></stop>
        </linearGradient>
        <linearGradient x1="50%" y1="100%" x2="50%" y2="3.061617e-15%" id="linearGradient-10">
            <stop stop-color="#000000" offset="0%"></stop>
            <stop stop-color="#25282C" offset="100%"></stop>
        </linearGradient>
        <linearGradient x1="50%" y1="-2.48949813e-15%" x2="50%" y2="100%" id="linearGradient-11">
            <stop stop-color="#303137" offset="0%"></stop>
            <stop stop-color="#000000" offset="100%"></stop>
        </linearGradient>
        <linearGradient x1="50%" y1="100%" x2="50%" y2="3.061617e-15%" id="linearGradient-12">
            <stop stop-color="#000000" offset="0%"></stop>
            <stop stop-color="#25282C" offset="100%"></stop>
        </linearGradient>
        <linearGradient x1="50%" y1="100%" x2="50%" y2="3.061617e-15%" id="linearGradient-13">
            <stop stop-color="#000000" offset="0%"></stop>
            <stop stop-color="#25282C" offset="100%"></stop>
        </linearGradient>
        <linearGradient x1="50%" y1="-2.48949813e-15%" x2="50%" y2="100%" id="linearGradient-14">
            <stop stop-color="#A9ABB3" offset="0%"></stop>
            <stop stop-color="#686E78" offset="100%"></stop>
        </linearGradient>
        <linearGradient x1="50%" y1="-2.48949813e-15%" x2="50%" y2="100%" id="linearGradient-15">
            <stop stop-color="#A9ABB3" offset="0%"></stop>
            <stop stop-color="#686E78" offset="100%"></stop>
        </linearGradient>
        <linearGradient x1="100%" y1="50%" x2="0%" y2="50%" id="linearGradient-16">
            <stop stop-color="#A9ABB3" offset="0%"></stop>
            <stop stop-color="#686E78" offset="100%"></stop>
        </linearGradient>
        <linearGradient x1="50%" y1="0%" x2="50%" y2="100%" id="linearGradient-17">
            <stop stop-color="#FFFFFF" offset="0%"></stop>
            <stop stop-color="#DDE0E3" offset="100%"></stop>
        </linearGradient>
        <path d="M970,262 L1050,262 C1064.66667,163.369343 1072,108.036009 1072,96 C1072,65.072054 1040.92795,0 1010,0 C979.072054,0 948,65.072054 948,96 C948,116.618631 955.333333,171.951964 970,262 Z" id="path-18"></path>
        <filter x="-17.7%" y="-8.4%" width="135.5%" height="116.8%" filterUnits="objectBoundingBox" id="filter-19">
            <feGaussianBlur stdDeviation="12" in="SourceAlpha" result="shadowBlurInner1"></feGaussianBlur>
            <feOffset dx="0" dy="-20" in="shadowBlurInner1" result="shadowOffsetInner1"></feOffset>
            <feComposite in="shadowOffsetInner1" in2="SourceAlpha" operator="arithmetic" k2="-1" k3="1" result="shadowInnerInner1"></feComposite>
            <feColorMatrix values="0 0 0 0 0   0 0 0 0 0   0 0 0 0 0  0 0 0 0.3 0" type="matrix" in="shadowInnerInner1"></feColorMatrix>
        </filter>
        <linearGradient x1="-1.11022302e-14%" y1="50%" x2="100%" y2="50%" id="linearGradient-20">
            <stop stop-color="#FFFFFF" stop-opacity="0" offset="0%"></stop>
            <stop stop-color="#FFFFFF" offset="100%"></stop>
        </linearGradient>
        <linearGradient x1="-1.11022302e-14%" y1="50%" x2="100%" y2="50%" id="linearGradient-21">
            <stop stop-color="#FFFFFF" stop-opacity="0" offset="0%"></stop>
            <stop stop-color="#FFFFFF" offset="100%"></stop>
        </linearGradient>
        <linearGradient x1="100%" y1="50%" x2="-2.22044605e-14%" y2="50%" id="linearGradient-22">
            <stop stop-color="#000000" offset="0%"></stop>
            <stop stop-color="#000000" offset="100%"></stop>
        </linearGradient>
        <linearGradient x1="50%" y1="-2.48949813e-15%" x2="50%" y2="100%" id="linearGradient-23">
            <stop stop-color="#303237" offset="0%"></stop>
            <stop stop-color="#A9ABB3" offset="100%"></stop>
        </linearGradient>
        <linearGradient x1="50%" y1="-2.48949813e-15%" x2="50%" y2="100%" id="linearGradient-24">
            <stop stop-color="#303237" offset="0%"></stop>
            <stop stop-color="#A9ABB3" offset="100%"></stop>
        </linearGradient>
    </defs>
    <g id="Journey" stroke="none" stroke-width="1" fill="none" fill-rule="evenodd">
        <g id="Group-2" transform="translate(388.000000, 57.000000)">
            <circle id="Oval" fill="url(#linearGradient-1)" cx="573" cy="724" r="573"></circle>
            <circle id="Oval" fill="url(#linearGradient-2)" cx="327" cy="84" r="67"></circle>
            <circle id="Oval" fill="url(#linearGradient-2)" cx="862.5" cy="120.5" r="120.5"></circle>
        </g>
        <path d="M1028.44057,811.648771 L578.019156,362.854478 C520.663315,305.705831 520.659837,213.053032 578.011389,155.908658 C635.383551,98.7437489 728.38806,98.690332 785.834901,155.789295 L945.38887,314.37706 L945.15191,314.784827 L1339.98084,708.187467 C1397.33669,765.336114 1397.34016,857.988914 1339.98861,915.133287 L785.976585,1467.14399 C728.625033,1524.28836 635.636318,1524.2849 578.280477,1467.13625 C520.924636,1409.9876 520.921159,1317.3348 578.272711,1260.19043 L1028.44057,811.648771 Z" id="Path" fill="url(#linearGradient-3)" transform="translate(959.000000, 811.500000) rotate(-90.000000) translate(-959.000000, -811.500000) "></path>
        <g id="Group-7" transform="translate(982.129449, 692.889985) scale(1, -1) rotate(19.000000) translate(-982.129449, -692.889985) translate(-61.370551, 64.889985)">
            <path d="M-24.2526016,747.392044 C-79.1242232,747.540128 -123.48618,703.073921 -123.338252,648.102069 L-123.069301,548.543665 L1463.11259,545.140968 C1517.98421,544.992884 1562.34617,589.459091 1562.19824,644.430942 L1561.92929,743.989347 L-24.2526016,747.392044 Z" id="Combined-Shape" fill="url(#linearGradient-4)" transform="translate(719.429995, 646.266506) rotate(-399.000000) translate(-719.429995, -646.266506) "></path>
            <path d="M982.31715,361.000456 C1017.14445,326.129746 1073.60802,326.127119 1108.41405,360.976551 L1171.45055,424.091652 L435.560731,1160.89869 C400.73343,1195.7694 344.26986,1195.77202 309.46383,1160.92259 L246.427334,1097.80749 L982.31715,361.000456 Z" id="Combined-Shape" fill="url(#linearGradient-5)" transform="translate(708.938940, 760.949572) rotate(-364.000000) translate(-708.938940, -760.949572) "></path>
            <path d="M1077.3951,193.522225 L2024.65626,596.977645 L1990.15418,678.53489 C1971.10362,723.567278 1919.30953,744.613187 1874.4787,725.518939 L927.217551,322.063518 L961.719631,240.506274 C980.77019,195.473886 1032.56428,174.427976 1077.3951,193.522225 Z" id="Combined-Shape" fill="url(#linearGradient-6)" transform="translate(1475.936904, 459.520582) rotate(-202.000000) translate(-1475.936904, -459.520582) "></path>
            <path d="M1812.21041,622.083945 C1713.81041,622.132631 1615.41042,622.181318 1517.01043,622.230004 C1341.33581,622.316925 1077.82174,622.447306 726.468219,622.621147 L726.468219,529.197456 C726.468219,477.612929 768.17136,435.776625 819.622737,435.780152 C1264.54522,435.560012 1598.23707,435.394908 1820.69831,435.284838 C1857.2705,435.266743 1877.9355,435.128895 1924.88511,435.105665 L1922.0902,515.887481 C1920.04149,575.10187 1871.46022,622.054629 1812.21041,622.083945 Z" id="Combined-Shape" fill="url(#linearGradient-7)" transform="translate(1325.676663, 528.863406) rotate(-349.000000) translate(-1325.676663, -528.863406) "></path>
        </g>
        <g id="Group" transform="translate(-50.000000, 173.000000)">
            <path d="M1010,250 C1027.67311,250 1042,264.326888 1042,282 C1042,286.835591 1018.08018,317.900141 1050.24055,375.193651 C1065.59695,402.550979 1085.64538,425.841797 1110.38585,445.066104 C1118.44011,426.7723 1136.72849,414 1158,414 C1174.83221,414 1189.7965,421.997509 1199.3003,434.399949 C1204.43297,411.864615 1224.20638,394.898499 1248.08621,394.034564 C1249.08034,382.805475 1258.51186,374 1270,374 C1282.15026,374 1292,383.849736 1292,396 C1292,401.175096 1290.21314,405.932848 1287.22274,409.689949 C1296.36599,419.060423 1302,431.872265 1302,446 C1302,474.718807 1278.71881,498 1250,498 C1233.16824,498 1218.2043,490.002921 1208.70047,477.601052 C1203.43003,500.735109 1182.73123,518 1158,518 C1145.90874,518 1134.78135,513.87318 1125.9495,506.951212 C1119.40066,513.761913 1110.19526,518 1100,518 C1080.11775,518 1064,501.882251 1064,482 C1064,476.252762 1065.34676,470.820078 1067.74192,466.000322 L971.606871,465.999361 C981.784159,477.044858 988,491.796535 988,508 C988,542.241654 960.241654,570 926,570 C919.289079,570 912.827188,568.933776 906.774486,566.961488 C893.949457,578.780951 876.817778,586 858,586 C818.235498,586 786,553.764502 786,514 L786.001357,513.927581 C778.152317,508.641968 771.967468,501.074443 768.397718,492.175918 C764.868292,494.588865 760.59894,496 756,496 C751.230356,496 746.815222,494.482163 743.211267,491.90316 C734.578327,521.987258 706.859839,544 674,544 C658.498406,544 644.141005,539.101129 632.391501,530.767092 C619.202705,547.361584 598.84372,558 576,558 C536.235498,558 504,525.764502 504,486 C504,446.235498 536.235498,414 576,414 C591.501594,414 605.858995,418.898871 617.608499,427.232908 C630.797295,410.638416 651.15628,400 674,400 C708.085187,400 736.63843,423.685069 744.099301,455.494779 C747.528432,453.283277 751.614353,452 756,452 C760.738166,452 765.126486,453.497868 768.717273,456.045918 C775.920021,438.979163 792.811069,427 812.5,427 C826.512471,427 839.107795,433.067526 847.802003,442.718607 C851.132041,442.244415 854.537477,442 858,442 C872.270756,442 885.571805,446.151808 896.761149,453.313425 C898.462466,452.401875 900.211328,451.567386 902.003055,450.814635 C929.943508,430.790191 952.40591,405.575084 969.391444,375.170763 C1001.79715,317.164143 978,286.107222 978,282 C978,264.326888 992.326888,250 1010,250 Z M1376,350 C1404.71881,350 1428,373.281193 1428,402 C1428,405.112951 1427.72646,408.162014 1427.20211,411.124464 C1436.4947,406.561178 1446.94825,404 1458,404 C1496.65993,404 1528,435.340068 1528,474 C1528,512.659932 1496.65993,544 1458,544 C1419.34007,544 1388,512.659932 1388,474 C1388,466.166061 1389.28688,458.63269 1391.66078,451.599749 C1386.7197,453.159094 1381.45805,454 1376,454 C1347.28119,454 1324,430.718807 1324,402 C1324,373.281193 1347.28119,350 1376,350 Z" id="Combined-Shape" fill="url(#linearGradient-8)"></path>
            <circle id="Oval" fill="url(#linearGradient-9)" cx="1200" cy="514" r="52"></circle>
            <path d="M1337,402 C1382.83963,402 1420,439.160366 1420,485 C1420,530.839634 1382.83963,568 1337,568 C1318.95087,568 1302.24732,562.238833 1288.62798,552.45511 C1281.18474,572.063402 1262.2199,586 1240,586 C1211.28119,586 1188,562.718807 1188,534 C1188,505.281193 1211.28119,482 1240,482 C1244.85395,482 1249.55256,482.665063 1254.00969,483.909037 C1254.59111,438.572152 1291.52461,402 1337,402 Z" id="Combined-Shape" fill="url(#linearGradient-10)"></path>
            <circle id="Oval" fill="url(#linearGradient-9)" cx="764" cy="536" r="54"></circle>
            <circle id="Oval" fill="url(#linearGradient-9)" cx="810" cy="612" r="54"></circle>
            <circle id="Oval" fill="url(#linearGradient-9)" cx="626" cy="512" r="54"></circle>
            <circle id="Oval" fill="url(#linearGradient-9)" cx="817" cy="554" r="22"></circle>
            <circle id="Oval" fill="url(#linearGradient-11)" cx="1506.5" cy="507.5" r="28.5"></circle>
            <path d="M1016,430 C1053.55536,430 1084,460.444637 1084,498 C1084,499.522928 1083.94994,501.034162 1083.85136,502.532148 C1094.9118,492.272047 1109.72344,486 1126,486 C1160.24165,486 1188,513.758346 1188,548 C1188,582.241654 1160.24165,610 1126,610 C1091.75835,610 1064,582.241654 1064,548 C1064,547.376876 1064.00919,546.755898 1064.02745,546.137196 C1051.72832,558.410922 1034.75042,566 1016,566 C978.444637,566 948,535.555363 948,498 C948,460.444637 978.444637,430 1016,430 Z" id="Combined-Shape" fill="url(#linearGradient-12)"></path>
            <path d="M956,482 C981.676219,482 1003.16694,499.920254 1008.64732,523.935925 C1015.23548,522.664497 1022.04014,522 1029,522 C1088.09447,522 1136,569.905532 1136,629 C1136,688.094468 1088.09447,736 1029,736 C972.285273,736 925.876467,691.875103 922.230665,636.082391 C915.982705,638.608906 909.153806,640 902,640 C872.176624,640 848,615.823376 848,586 C848,556.176624 872.176624,532 902,532 C902.049148,532 902.098281,532.000066 902.147399,532.000197 C904.192339,504.044952 927.521733,482 956,482 Z" id="Combined-Shape" fill="url(#linearGradient-13)"></path>
            <circle id="Oval" fill="url(#linearGradient-9)" cx="693" cy="593" r="107"></circle>
            <circle id="Oval" fill="url(#linearGradient-9)" cx="107" cy="505" r="107"></circle>
            <circle id="Oval" fill="url(#linearGradient-9)" cx="71" cy="593" r="54"></circle>
            <circle id="Oval" fill="url(#linearGradient-9)" cx="71" cy="593" r="54"></circle>
            <circle id="Oval" fill="url(#linearGradient-9)" cx="523" cy="575" r="107"></circle>
            <circle id="Oval" fill="url(#linearGradient-9)" cx="460" cy="476" r="54"></circle>
            <circle id="Oval" fill="url(#linearGradient-9)" cx="143" cy="607" r="54"></circle>
            <circle id="Oval" fill="url(#linearGradient-9)" cx="316" cy="555" r="162"></circle>
            <circle id="Oval" fill="url(#linearGradient-9)" cx="1361" cy="553" r="107"></circle>
            <circle id="Oval" fill="url(#linearGradient-9)" cx="1483" cy="612" r="107"></circle>
            <circle id="Oval" fill="url(#linearGradient-9)" cx="1213" cy="605" r="107"></circle>
            <circle id="Oval" fill="url(#linearGradient-9)" cx="1562" cy="456" r="54"></circle>
            <circle id="Oval" fill="url(#linearGradient-9)" cx="1648" cy="593" r="168"></circle>
            <circle id="Oval" fill="url(#linearGradient-9)" cx="1829" cy="546" r="83"></circle>
            <circle id="Oval" fill="url(#linearGradient-9)" cx="1946" cy="534" r="83"></circle>
            <circle id="Oval" fill="url(#linearGradient-9)" cx="1323" cy="649" r="53"></circle>
            <path d="M935,224 L955,224 C955,171.327494 955,143.994161 955,142 C955,136.477153 950.522847,112 945,112 C939.477153,112 935,136.477153 935,142 C935,145.681898 935,173.015232 935,224 Z" id="Oval" fill="#686E78"></path>
            <path d="M955,142 C955,136.477153 950.522847,112 945,112 C939.477153,112 935,136.477153 935,142 C935,147.522847 955,144.991242 955,142 Z" id="Oval" fill="url(#linearGradient-14)"></path>
            <path d="M1064,224 L1084,224 C1084,171.327494 1084,143.994161 1084,142 C1084,136.477153 1079.52285,112 1074,112 C1068.47715,112 1064,136.477153 1064,142 C1064,145.681898 1064,173.015232 1064,224 Z" id="Oval" fill="#686E78"></path>
            <path d="M1084,142 C1084,136.477153 1079.52285,112 1074,112 C1068.47715,112 1064,136.477153 1064,142 C1064,147.522847 1084,144.991242 1084,142 Z" id="Oval" fill="url(#linearGradient-14)"></path>
            <path d="M972.308992,282 L1047.51562,282 C1049.08369,282 1050.50713,281.083782 1051.1565,279.656502 C1053.25034,275.054387 1054.75895,269.591272 1055.68232,263.267157 C1058.17001,246.229155 961.453195,247.951561 964.038688,264.409551 C965.002088,270.542091 966.57847,275.692291 968.767832,279.860152 C969.458999,281.175932 970.822725,282 972.308992,282 Z" id="Oval" fill="url(#linearGradient-15)"></path>
            <path d="M946.350449,155.166875 C955.050094,155.288409 962.431064,166.231147 968.493358,187.995088 C973.522891,206.051365 976.808064,225.493027 978.348878,246.320074 C978.756351,251.827868 974.621725,256.623141 969.11393,257.030616 C968.228932,257.096089 967.339156,257.043469 966.468043,256.874142 L912.32675,246.350141 L912.32675,246.350141 L946.350449,155.166875 Z" id="Triangle" fill="url(#linearGradient-16)" transform="translate(945.702074, 207.246014) scale(-1, 1) rotate(-11.000000) translate(-945.702074, -207.246014) "></path>
            <path d="M1074.0237,155.166875 C1082.72334,155.288409 1090.10431,166.231147 1096.16661,187.995088 C1101.19614,206.051365 1104.48131,225.493027 1106.02213,246.320074 C1106.4296,251.827868 1102.29497,256.623141 1096.78718,257.030616 C1095.90218,257.096089 1095.01241,257.043469 1094.14129,256.874142 L1040,246.350141 L1040,246.350141 L1074.0237,155.166875 Z" id="Triangle" fill="url(#linearGradient-16)" transform="translate(1073.375324, 207.246014) rotate(-11.000000) translate(-1073.375324, -207.246014) "></path>
            <g id="Oval">
                <use fill="url(#linearGradient-17)" fill-rule="evenodd" xlink:href="#path-18"></use>
                <use fill="black" fill-opacity="1" filter="url(#filter-19)" xlink:href="#path-18"></use>
            </g>
            <circle id="Combined-Shape" fill="url(#linearGradient-9)" cx="823" cy="648" r="68"></circle>
            <circle id="Oval" fill="url(#linearGradient-9)" cx="1816" cy="704" r="168"></circle>
        </g>
        <g id="Group-3" transform="translate(75.000000, 49.000000)">
            <path d="M1299.46509,264.008306 L1274.39446,238.950357 C1271.20201,235.759524 1271.20182,230.586354 1274.39403,227.395759 C1277.58739,224.204017 1282.76405,224.201035 1285.96157,227.389095 L1294.8424,236.243673 L1294.82921,236.26644 L1316.80554,258.231655 C1319.99799,261.422489 1319.99818,266.595659 1316.80597,269.786254 L1285.96945,300.60718 C1282.77724,303.797775 1277.60146,303.797582 1274.40901,300.606748 C1271.21656,297.415915 1271.21637,292.242745 1274.40858,289.05215 L1299.46509,264.008306 Z" id="Path" fill="url(#linearGradient-20)" opacity="0.4" transform="translate(1295.600000, 264.000000) rotate(-60.000000) translate(-1295.600000, -264.000000) "></path>
            <path d="M80.4650881,164.008306 L55.3944624,138.950357 C52.2020147,135.759524 52.2018211,130.586354 55.3940302,127.395759 C58.5873863,124.204017 63.7640524,124.201035 66.9615653,127.389095 L75.8423994,136.243673 L75.8292101,136.26644 L97.8055376,158.231655 C100.997985,161.422489 100.998179,166.595659 97.8059698,169.786254 L66.9694514,200.60718 C63.7772424,203.797775 58.6014555,203.797582 55.4090077,200.606748 C52.2165599,197.415915 52.2163664,192.242745 55.4085754,189.05215 L80.4650881,164.008306 Z" id="Path" fill="url(#linearGradient-20)" opacity="0.4" transform="translate(76.600000, 164.000000) rotate(-120.000000) translate(-76.600000, -164.000000) "></path>
            <path d="M433.732544,84.5041532 L421.197231,71.9751787 C419.601007,70.3797619 419.600911,67.793177 421.197015,66.1978795 C422.793693,64.6020087 425.382026,64.6005175 426.980783,66.1945473 L431.4212,70.6218363 L431.414605,70.6332199 L442.402769,81.6158277 C443.998993,83.2112444 443.999089,85.7978294 442.402985,87.3931268 L426.984726,102.80359 C425.388621,104.398888 422.800728,104.398791 421.204504,102.803374 C419.60828,101.207957 419.608183,98.6213724 421.204288,97.026075 L433.732544,84.5041532 Z" id="Path" fill="url(#linearGradient-21)" opacity="0.4" transform="translate(431.800000, 84.500000) rotate(-102.000000) translate(-431.800000, -84.500000) "></path>
            <path d="M444.732544,365.504153 L432.197231,352.975179 C430.601007,351.379762 430.600911,348.793177 432.197015,347.19788 C433.793693,345.602009 436.382026,345.600517 437.980783,347.194547 L442.4212,351.621836 L442.414605,351.63322 L453.402769,362.615828 C454.998993,364.211244 454.999089,366.797829 453.402985,368.393127 L437.984726,383.80359 C436.388621,385.398888 433.800728,385.398791 432.204504,383.803374 C430.60828,382.207957 430.608183,379.621372 432.204288,378.026075 L444.732544,365.504153 Z" id="Path" fill="url(#linearGradient-21)" opacity="0.4" transform="translate(442.800000, 365.500000) rotate(-135.000000) translate(-442.800000, -365.500000) "></path>
            <path d="M1624.73254,155.504153 L1612.19723,142.975179 C1610.60101,141.379762 1610.60091,138.793177 1612.19702,137.19788 C1613.79369,135.602009 1616.38203,135.600517 1617.98078,137.194547 L1622.4212,141.621836 L1622.41461,141.63322 L1633.40277,152.615828 C1634.99899,154.211244 1634.99909,156.797829 1633.40298,158.393127 L1617.98473,173.80359 C1616.38862,175.398888 1613.80073,175.398791 1612.2045,173.803374 C1610.60828,172.207957 1610.60818,169.621372 1612.20429,168.026075 L1624.73254,155.504153 Z" id="Path" fill="url(#linearGradient-21)" opacity="0.4" transform="translate(1622.800000, 155.500000) rotate(-30.000000) translate(-1622.800000, -155.500000) "></path>
            <circle id="Oval" fill="url(#linearGradient-2)" opacity="0.4" cx="1492.5" cy="297.5" r="6.5"></circle>
            <circle id="Oval" fill="url(#linearGradient-2)" opacity="0.4" cx="1075.5" cy="230.5" r="6.5"></circle>
            <circle id="Oval" fill="url(#linearGradient-2)" opacity="0.4" cx="1818.5" cy="62.5" r="6.5"></circle>
            <circle id="Oval" fill="url(#linearGradient-2)" opacity="0.4" cx="282.5" cy="6.5" r="6.5"></circle>
            <circle id="Oval" fill="url(#linearGradient-2)" opacity="0.4" cx="6.5" cy="357.5" r="6.5"></circle>
            <circle id="Oval" fill="url(#linearGradient-2)" opacity="0.4" cx="664" cy="366" r="16"></circle>
            <circle id="Oval" fill="url(#linearGradient-2)" opacity="0.4" cx="1441" cy="53" r="16"></circle>
            <path d="M867.491106,337.869372 C865.57395,337.86319 864.015357,336.098562 864.009894,333.929089 L864,330 L904.508894,330.130628 C906.42605,330.13681 907.984643,331.901438 907.990106,334.070911 L908,338 L867.491106,337.869372 Z" id="Combined-Shape" fill="url(#linearGradient-22)" style="mix-blend-mode: soft-light;"></path>
            <path d="M867.491106,353.869372 C865.57395,353.86319 864.015357,352.098562 864.009894,349.929089 L864,346 L904.508894,346.130628 C906.42605,346.13681 907.984643,347.901438 907.990106,350.070911 L908,354 L867.491106,353.869372 Z" id="Combined-Shape" fill="url(#linearGradient-22)" style="mix-blend-mode: soft-light;"></path>
        </g>
        <g id="Group" transform="translate(922.360000, 253.000000)">
            <g id="Secound" opacity="0.56" transform="translate(50.975610, 4.599303)" fill="url(#linearGradient-23)">
                <path d="M14.9640753,16.9200707 L6.6039024,8.4735126 L10.7818105,0.0298889884 L24.3654576,13.7538953 C26.0962043,15.5025257 26.0962043,18.3376157 24.3654576,20.0862462 L7.64656412,36.9778951 C5.91581743,38.7265255 3.1097226,38.7265255 1.3789759,36.9778951 C-0.351770793,35.2292647 -0.351770793,32.3941746 1.3789759,30.6455442 L14.9640753,16.9200707 Z" id="Combined-Shape"></path>
            </g>
            <path d="M51.8486833,1.3169032 C53.5927792,-0.439458901 56.4212491,-0.438722034 58.1653451,1.31764007 L61.3240418,4.49855184 L24.4718481,41.6099261 C22.7277521,43.3662882 19.8992822,43.3655513 18.1551863,41.6091892 L14.9964896,38.4282774 L51.8486833,1.3169032 Z M36.0544679,12.9809832 L29.7370744,19.3428068 L21.3124196,10.8589017 L10.781967,21.4634146 L19.2066218,29.9473198 L14.9964896,38.4282774 L1.30807194,24.6435895 C-0.436023981,22.8872274 -0.436023981,20.0396018 1.30807194,18.2832397 L18.1551863,1.31764007 C19.8992822,-0.438722034 22.7277521,-0.439458901 24.4718481,1.3169032 L36.0544679,12.9809832 Z" id="Main" fill="url(#linearGradient-24)"></path>
        </g>
    </g>
</svg>